<svg width="756" height="169" viewBox="0 0 756 169" fill="none" xmlns="http://www.w3.org/2000/svg">
  <path d="M0 130.731H46.9607C74.3094 130.731 91.5823 117.103 91.5823 96.1227C91.5823 80.522 84.7451 69.4043 64.2336 64.5627C79.7072 58.8246 84.5652 50.2173 84.5652 38.203C84.5652 18.6573 69.8113 5.2085 42.4625 5.2085H0V130.731ZM25.1896 108.137V77.4736H44.6216C58.296 77.4736 66.0328 83.0325 66.0328 92.1777C66.0328 103.116 58.296 108.137 44.6216 108.137H25.1896ZM25.1896 57.0314V27.6232H40.1235C53.7978 27.6232 59.0157 33.5407 59.0157 42.148C59.0157 52.1898 53.7978 57.0314 40.1235 57.0314H25.1896ZM111.054 168.208C133.005 168.208 144.7 155.477 152.617 136.649L194 37.4857H165.212L147.039 90.7432C145.42 95.2261 143.981 100.785 143.081 105.627C142.181 100.785 140.742 95.2261 139.123 90.7432L120.95 37.4857H91.6221L128.687 126.427L127.427 130.372C124.729 138.621 118.791 144.539 109.435 144.539C105.476 144.539 102.058 144.18 98.4593 143.283L94.8608 166.415C99.7188 167.85 106.196 168.208 111.054 168.208Z" fill="#111827" />
  <path d="M241.679 130.881H254.973V109.401H244.913C240.242 109.401 237.368 106.716 237.368 100.809V58.3848H257.129V37.7993H237.368V16.4979L213.115 19.0039V37.7993H200V58.3848H213.115V102.062C213.115 122.289 223.175 130.881 241.679 130.881ZM307.514 133.208C326.018 133.208 341.648 124.974 349.193 113.339L330.33 99.1977C326.018 106.358 317.934 111.728 307.514 111.728C295.298 111.728 287.034 104.031 284.339 93.1116H354.223C354.762 90.0685 354.942 87.2045 354.942 84.5194C354.942 57.6688 335.539 35.4723 307.514 35.4723C279.488 35.4723 259.188 57.6688 259.188 84.5194C259.188 111.37 278.59 133.208 307.514 133.208ZM284.339 75.0322C287.034 63.9339 295.657 56.2368 307.155 56.2368C319.012 56.2368 327.814 64.6499 330.509 75.0322H284.339ZM419.305 133.208C444.995 133.208 465.475 111.549 465.475 84.6984C465.475 57.8478 444.995 35.8303 419.305 35.8303C403.316 35.8303 394.872 42.2744 389.842 52.1197V0.208496H365.589V130.881H389.123V115.666C394.153 126.227 402.597 133.208 419.305 133.208ZM389.123 84.6984C389.123 70.1991 399.363 57.6688 415.352 57.6688C430.802 57.6688 441.222 70.0201 441.222 84.5194C441.222 98.6607 430.802 111.37 415.352 111.37C399.363 111.37 389.123 99.1977 389.123 84.6984ZM517.992 133.208C534.7 133.208 543.144 126.227 548.174 115.666V130.881H571.708V37.7993H547.635V52.4777C542.605 42.4534 534.161 35.8303 517.992 35.8303C492.302 35.8303 471.822 57.8478 471.822 84.6984C471.822 111.549 492.302 133.208 517.992 133.208ZM496.075 84.5194C496.075 70.0201 506.495 57.6688 521.945 57.6688C537.934 57.6688 548.174 70.1991 548.174 84.6984C548.174 99.1977 537.934 111.37 521.945 111.37C506.495 111.37 496.075 98.6607 496.075 84.5194ZM618.096 133.208C638.756 133.208 654.385 120.32 654.385 103.136C654.385 89.1735 648.097 79.1493 620.97 72.1681C609.832 69.3041 608.394 66.44 608.394 63.2179C608.394 57.4898 613.425 54.9837 620.072 54.9837C626.36 54.9837 632.108 57.8478 636.6 65.008L654.206 51.5827C644.684 39.2314 634.624 35.4723 619.533 35.4723C597.615 35.4723 584.68 47.6446 584.68 63.9339C584.68 75.7482 588.453 87.0255 613.425 92.9326C628.156 96.3337 630.492 99.0187 630.492 103.852C630.492 109.401 625.821 113.518 617.557 113.518C609.652 113.518 602.466 109.759 595.639 102.062L579.291 116.919C589.531 127.838 602.286 133.208 618.096 133.208ZM708.572 133.208C727.076 133.208 742.706 124.974 750.251 113.339L731.388 99.1977C727.076 106.358 718.992 111.728 708.572 111.728C696.356 111.728 688.092 104.031 685.397 93.1116H755.281C755.82 90.0685 756 87.2045 756 84.5194C756 57.6688 736.598 35.4723 708.572 35.4723C680.546 35.4723 660.246 57.6688 660.246 84.5194C660.246 111.37 679.648 133.208 708.572 133.208ZM685.397 75.0322C688.092 63.9339 696.715 56.2368 708.213 56.2368C720.07 56.2368 728.873 64.6499 731.567 75.0322H685.397Z" fill="#111827" />
</svg>