<svg width="619" height="140" viewBox="0 0 619 140" fill="none" xmlns="http://www.w3.org/2000/svg">
<path d="M0.616797 109H39.2448C61.7408 109 75.9488 97.752 75.9488 80.436C75.9488 67.56 70.3248 58.384 53.4528 54.388C66.1808 49.652 70.1768 42.548 70.1768 32.632C70.1768 16.5 58.0408 5.39999 35.5448 5.39999H0.616797V109ZM21.3368 90.352V65.044H37.3208C48.5688 65.044 54.9328 69.632 54.9328 77.18C54.9328 86.208 48.5688 90.352 37.3208 90.352H21.3368ZM21.3368 48.172V23.9H33.6208C44.8688 23.9 49.1608 28.784 49.1608 35.888C49.1608 44.176 44.8688 48.172 33.6208 48.172H21.3368ZM91.9652 139.932C110.021 139.932 119.641 129.424 126.153 113.884L160.193 32.04H136.513L121.565 75.996C120.233 79.696 119.049 84.284 118.309 88.28C117.569 84.284 116.385 79.696 115.053 75.996L100.105 32.04H75.9812L106.469 105.448L105.433 108.704C103.213 115.512 98.3292 120.396 90.6332 120.396C87.3772 120.396 84.5652 120.1 81.6052 119.36L78.6452 138.452C82.6412 139.636 87.9692 139.932 91.9652 139.932ZM195.226 109H206.178V91.24H197.89C194.042 91.24 191.674 89.02 191.674 84.136V49.06H207.954V32.04H191.674V14.428L171.694 16.5V32.04H160.89V49.06H171.694V85.172C171.694 101.896 179.982 109 195.226 109ZM249.461 110.924C264.705 110.924 277.581 104.116 283.797 94.496L268.257 82.804C264.705 88.724 258.045 93.164 249.461 93.164C239.397 93.164 232.589 86.8 230.369 77.772H287.941C288.385 75.256 288.533 72.888 288.533 70.668C288.533 48.468 272.549 30.116 249.461 30.116C226.373 30.116 209.649 48.468 209.649 70.668C209.649 92.868 225.633 110.924 249.461 110.924ZM230.369 62.824C232.589 53.648 239.693 47.284 249.165 47.284C258.933 47.284 266.185 54.24 268.405 62.824H230.369ZM341.557 110.924C362.721 110.924 379.593 93.016 379.593 70.816C379.593 48.616 362.721 30.412 341.557 30.412C328.385 30.412 321.429 35.74 317.285 43.88V0.959997H297.305V109H316.693V96.42C320.837 105.152 327.793 110.924 341.557 110.924ZM316.693 70.816C316.693 58.828 325.129 48.468 338.301 48.468C351.029 48.468 359.613 58.68 359.613 70.668C359.613 82.36 351.029 92.868 338.301 92.868C325.129 92.868 316.693 82.804 316.693 70.816ZM422.857 110.924C436.621 110.924 443.577 105.152 447.721 96.42V109H467.109V32.04H447.277V44.176C443.133 35.888 436.177 30.412 422.857 30.412C401.693 30.412 384.821 48.616 384.821 70.816C384.821 93.016 401.693 110.924 422.857 110.924ZM404.801 70.668C404.801 58.68 413.385 48.468 426.113 48.468C439.285 48.468 447.721 58.828 447.721 70.816C447.721 82.804 439.285 92.868 426.113 92.868C413.385 92.868 404.801 82.36 404.801 70.668ZM505.325 110.924C522.345 110.924 535.221 100.268 535.221 86.06C535.221 74.516 530.041 66.228 507.693 60.456C498.517 58.088 497.333 55.72 497.333 53.056C497.333 48.32 501.477 46.248 506.953 46.248C512.133 46.248 516.869 48.616 520.569 54.536L535.073 43.436C527.229 33.224 518.941 30.116 506.509 30.116C488.453 30.116 477.797 40.18 477.797 53.648C477.797 63.416 480.905 72.74 501.477 77.624C513.613 80.436 515.537 82.656 515.537 86.652C515.537 91.24 511.689 94.644 504.881 94.644C498.369 94.644 492.449 91.536 486.825 85.172L473.357 97.456C481.793 106.484 492.301 110.924 505.325 110.924ZM579.86 110.924C595.104 110.924 607.98 104.116 614.196 94.496L598.656 82.804C595.104 88.724 588.444 93.164 579.86 93.164C569.796 93.164 562.988 86.8 560.768 77.772H618.34C618.784 75.256 618.932 72.888 618.932 70.668C618.932 48.468 602.948 30.116 579.86 30.116C556.772 30.116 540.048 48.468 540.048 70.668C540.048 92.868 556.032 110.924 579.86 110.924ZM560.768 62.824C562.988 53.648 570.092 47.284 579.564 47.284C589.332 47.284 596.584 54.24 598.804 62.824H560.768Z" fill="#111827"/>
</svg>
